<svg width="180" height="24" viewBox="0 0 180 24" fill="none" xmlns="http://www.w3.org/2000/svg">
<path fill-rule="evenodd" clip-rule="evenodd" d="M8.85 3.33841H13.5L14.5 0H0V3.33841H5.15V18H8.85V3.33841ZM114.237 18C112.593 18 111.102 17.6188 109.765 16.8564C108.443 16.0773 107.398 15.0083 106.63 13.6492C105.877 12.2735 105.5 10.7238 105.5 9C105.5 7.27624 105.877 5.73481 106.63 4.37569C107.398 3 108.443 1.93094 109.765 1.16851C111.102 0.389502 112.601 0 114.26 0C115.659 0 116.919 0.265193 118.041 0.79558C119.179 1.32597 120.132 2.0884 120.9 3.08287L118.502 5.46961C117.411 4.1105 116.059 3.43094 114.445 3.43094C113.446 3.43094 112.554 3.67127 111.771 4.15193C110.987 4.61602 110.372 5.27072 109.926 6.11602C109.496 6.96133 109.281 7.92265 109.281 9C109.281 10.0773 109.496 11.0387 109.926 11.884C110.372 12.7293 110.987 13.3923 111.771 13.8729C112.554 14.337 113.446 14.5691 114.445 14.5691C116.059 14.5691 117.411 13.8812 118.502 12.5055L120.9 14.8923C120.132 15.9033 119.179 16.674 118.041 17.2044C116.904 17.7348 115.636 18 114.237 18ZM162.93 0H156.94L155.94 2.5H161.93L162.93 0ZM174.476 18C173.162 18 171.978 17.7052 170.923 17.1155C169.884 16.509 169.067 15.6751 168.471 14.6137C167.89 13.5523 167.6 12.3478 167.6 11C167.6 9.65223 167.89 8.44765 168.471 7.38628C169.067 6.32491 169.884 5.4994 170.923 4.90975C171.978 4.30325 173.162 4 174.476 4C175.775 4 176.906 4.30325 177.868 4.90975C178.846 5.4994 179.557 6.35018 180 7.46209L177.227 9.10469C176.585 7.858 175.66 7.23466 174.453 7.23466C173.521 7.23466 172.749 7.5716 172.138 8.24549C171.527 8.91937 171.221 9.83755 171.221 11C171.221 12.1625 171.527 13.0806 172.138 13.7545C172.749 14.4284 173.521 14.7653 174.453 14.7653C175.676 14.7653 176.6 14.142 177.227 12.8953L180 14.5632C179.557 15.6414 178.846 16.4838 177.868 17.0903C176.906 17.6968 175.775 18 174.476 18ZM152.4 4.2H155.943V12.2892L161.931 4.2H165.2V17.8H161.657V9.71078L155.691 17.8H152.4V4.2ZM143.173 4C144.504 4 145.689 4.30108 146.728 4.90323C147.784 5.48865 148.609 6.31661 149.206 7.3871C149.802 8.45759 150.1 9.66189 150.1 11C150.1 12.3381 149.802 13.5424 149.206 14.6129C148.609 15.6834 147.784 16.5197 146.728 17.1219C145.689 17.7073 144.504 18 143.173 18C141.996 18 140.926 17.7909 139.962 17.3728C139.014 16.9379 138.227 16.319 137.6 15.5161L139.641 13.4086C140.574 14.4624 141.706 14.9893 143.036 14.9893C143.923 14.9893 144.687 14.7467 145.329 14.2617C145.972 13.7766 146.407 13.1159 146.637 12.2796H141.453V9.59498H146.591C146.346 8.79212 145.91 8.15651 145.284 7.68817C144.657 7.21983 143.907 6.98566 143.036 6.98566C141.721 6.98566 140.589 7.52091 139.641 8.5914L137.6 6.50896C138.227 5.68937 139.014 5.07049 139.962 4.65233C140.926 4.21744 141.996 4 143.173 4ZM135.353 17.8V4.2H123.1V17.8H126.65V7.43568H131.78V17.8H135.353ZM97.9512 7.43568H103.203L104.2 4.2H94.4V17.8H97.9512V7.43568ZM78.6 4.2H82.155V9.50855H87.522V4.2H91.1V17.8H87.522V12.719H82.155V17.8H78.6V4.2ZM65.8429 4.2H62.3V17.8H65.5914L71.5571 9.71078V17.8H75.1V4.2H71.8314L65.8429 12.2892V4.2ZM46.4 4.2H49.955V9.50855H55.322V4.2H58.9V17.8H55.322V12.719H49.955V17.8H46.4V4.2ZM43.8312 12.1119C43.8771 11.4549 43.9 11.1011 43.9 11.0505C43.9 9.63538 43.6172 8.39711 43.0517 7.33574C42.5014 6.25752 41.7372 5.43201 40.7589 4.85921C39.7807 4.2864 38.6878 4 37.4803 4C36.2422 4 35.1187 4.30325 34.1099 4.90975C33.1163 5.4994 32.3292 6.33333 31.7483 7.41155C31.1828 8.47292 30.9 9.66907 30.9 11C30.9 12.3478 31.1904 13.5523 31.7713 14.6137C32.3521 15.6751 33.1775 16.509 34.2474 17.1155C35.3174 17.7052 36.5479 18 37.9388 18C40.1704 18 41.8671 17.2671 43.0287 15.8014L41.1258 13.5271C40.6978 13.982 40.2316 14.3189 39.7272 14.5379C39.238 14.7401 38.6725 14.8412 38.0305 14.8412C37.0981 14.8412 36.3186 14.5969 35.6919 14.1083C35.0652 13.6197 34.6678 12.9543 34.4996 12.1119H43.8312ZM35.4626 7.74007C36.0129 7.23466 36.6931 6.98195 37.5032 6.98195C38.298 6.98195 38.9705 7.24308 39.5208 7.76534C40.0711 8.27076 40.4073 8.95307 40.5296 9.81228H34.4538C34.5761 8.93622 34.9123 8.24549 35.4626 7.74007ZM22.8717 4C24.015 4 25.0517 4.29506 25.9816 4.88518C26.9267 5.45845 27.6661 6.27619 28.1997 7.33841C28.7332 8.38377 29 9.60617 29 11.0056C29 12.405 28.7332 13.6359 28.1997 14.6981C27.6661 15.7435 26.9267 16.5612 25.9816 17.1513C25.0517 17.7246 24.015 18.0112 22.8717 18.0112C21.3015 18.0112 20.0667 17.4632 19.1672 16.3673V23L15.6 24V4.20233H19.0072V5.77037C19.8914 4.59012 21.1795 4 22.8717 4ZM22.2543 14.774C23.1689 14.774 23.9159 14.4367 24.4952 13.7623C25.0898 13.071 25.387 12.1521 25.387 11.0056C25.387 9.85908 25.0898 8.9486 24.4952 8.27418C23.9159 7.58289 23.1689 7.23725 22.2543 7.23725C21.3396 7.23725 20.585 7.58289 19.9904 8.27418C19.4111 8.9486 19.1215 9.85908 19.1215 11.0056C19.1215 12.1521 19.4111 13.071 19.9904 13.7623C20.585 14.4367 21.3396 14.774 22.2543 14.774Z" fill="#222222"/>
</svg>
